<svg width="20" height="22" viewBox="0 0 20 22" fill="none" xmlns="http://www.w3.org/2000/svg">
<path d="M2.9952 10.954C2.92555 9.05027 3.61357 7.1966 4.90844 5.79933C6.2033 4.40207 7.99935 3.57523 9.90287 3.50006C11.8064 3.57523 13.6024 4.40207 14.8973 5.79933C16.1922 7.1966 16.8802 9.05027 16.8105 10.954C16.8105 12.6003 18.5993 14.2041 18.6518 15.8541C18.6518 15.8774 18.6518 15.9008 18.6518 15.9241C18.6704 16.4318 18.4869 16.9262 18.1415 17.2988C17.7961 17.6714 17.317 17.8918 16.8093 17.9117H12.8192C12.8229 18.7217 12.5176 19.5027 11.9654 20.0955C11.7028 20.3806 11.384 20.6082 11.029 20.7639C10.6739 20.9196 10.2905 21 9.90287 21C9.51522 21 9.13179 20.9196 8.77678 20.7639C8.42177 20.6082 8.1029 20.3806 7.84032 20.0955C7.28817 19.5027 6.98284 18.7217 6.98655 17.9117H2.9952C2.48751 17.8918 2.00843 17.6714 1.66301 17.2988C1.3176 16.9262 1.13406 16.4318 1.15265 15.9241C1.15265 15.9008 1.15265 15.8774 1.15265 15.8541C1.20641 14.2091 2.9952 12.6015 2.9952 10.954Z" stroke="#1A1A1A" stroke-width="1.5" stroke-linecap="round" stroke-linejoin="round"/>
<path d="M6.98633 17.9117H12.819M11.1527 1H8.65262" stroke="#1A1A1A" stroke-width="1.5" stroke-linecap="round" stroke-linejoin="round"/>
</svg>
