<svg width="20" height="20" viewBox="0 0 20 20" fill="none" xmlns="http://www.w3.org/2000/svg">
<path fill-rule="evenodd" clip-rule="evenodd" d="M8.5 1.75001C7.61358 1.75001 6.73583 1.9246 5.91689 2.26382C5.09794 2.60304 4.35382 3.10024 3.72703 3.72704C3.10023 4.35384 2.60303 5.09795 2.26381 5.9169C1.92459 6.73585 1.75 7.61359 1.75 8.50001C1.75 9.38643 1.92459 10.2642 2.26381 11.0831C2.60303 11.9021 3.10023 12.6462 3.72703 13.273C4.35382 13.8998 5.09794 14.397 5.91689 14.7362C6.73583 15.0754 7.61358 15.25 8.5 15.25C10.2902 15.25 12.0071 14.5389 13.273 13.273C14.5388 12.0071 15.25 10.2902 15.25 8.50001C15.25 6.7098 14.5388 4.99291 13.273 3.72704C12.0071 2.46117 10.2902 1.75001 8.5 1.75001ZM0.25 8.50001C0.250175 7.17511 0.56944 5.86973 1.18079 4.69431C1.79214 3.51889 2.67759 2.50799 3.76224 1.74713C4.84689 0.986273 6.09883 0.497836 7.41216 0.323135C8.7255 0.148435 10.0616 0.292611 11.3074 0.743467C12.5533 1.19432 13.6722 1.9386 14.5695 2.91333C15.4669 3.88807 16.1163 5.06459 16.4628 6.34337C16.8094 7.62216 16.8428 8.96559 16.5603 10.26C16.2778 11.5545 15.6878 12.7618 14.84 13.78L19.53 18.47C19.6037 18.5387 19.6628 18.6215 19.7038 18.7135C19.7448 18.8055 19.7668 18.9048 19.7686 19.0055C19.7704 19.1062 19.7518 19.2062 19.7141 19.2996C19.6764 19.393 19.6203 19.4778 19.549 19.549C19.4778 19.6203 19.393 19.6764 19.2996 19.7141C19.2062 19.7519 19.1062 19.7704 19.0055 19.7686C18.9048 19.7668 18.8055 19.7448 18.7135 19.7038C18.6215 19.6628 18.5387 19.6037 18.47 19.53L13.78 14.84C12.5752 15.8435 11.1094 16.4829 9.55432 16.6833C7.99922 16.8837 6.41922 16.6367 4.99941 15.9714C3.5796 15.3061 2.37878 14.25 1.53763 12.9267C0.69648 11.6035 0.249828 10.068 0.25 8.50001Z" fill="#858D9D"/>
</svg>
