<svg width="20" height="18" viewBox="0 0 20 18" fill="none" xmlns="http://www.w3.org/2000/svg">
<path d="M13.3335 12.3333L10.0002 9M10.0002 9L6.66688 12.3333M10.0002 9V16.5M16.9919 14.325C17.8047 13.8819 18.4467 13.1807 18.8168 12.3322C19.1868 11.4836 19.2637 10.536 19.0354 9.63891C18.807 8.74179 18.2865 7.94626 17.5558 7.37787C16.8251 6.80948 15.9259 6.50061 15.0002 6.5H13.9502C13.698 5.52436 13.2278 4.61861 12.5752 3.85082C11.9225 3.08304 11.1042 2.47321 10.182 2.06717C9.25967 1.66113 8.25734 1.46946 7.25031 1.50657C6.24328 1.54367 5.25777 1.80858 4.36786 2.28138C3.47795 2.75419 2.7068 3.42258 2.1124 4.23631C1.51799 5.05005 1.11579 5.98794 0.936028 6.97949C0.756269 7.97104 0.803632 8.99044 1.07456 9.96105C1.34548 10.9317 1.83291 11.8282 2.50021 12.5833" stroke="#5A5C57" stroke-width="1.67" stroke-linecap="round" stroke-linejoin="round"/>
</svg>
